<?xml version="1.0" standalone="no"?>
<!DOCTYPE svg PUBLIC "-//W3C//DTD SVG 20010904//EN"
 "http://www.w3.org/TR/2001/REC-SVG-20010904/DTD/svg10.dtd">
<svg version="1.0" xmlns="http://www.w3.org/2000/svg"
 width="225.000000pt" height="225.000000pt" viewBox="0 0 225.000000 225.000000"
 preserveAspectRatio="xMidYMid meet">

<g transform="translate(0.000000,225.000000) scale(0.100000,-0.100000)"
fill="#000000" stroke="none">
<path d="M1090 2102 c-8 -5 -79 -44 -157 -87 -79 -42 -141 -81 -138 -85 3 -5
0 -12 -6 -16 -8 -4 -9 -3 -5 4 10 16 -5 15 -29 -1 -11 -8 -54 -32 -95 -55
-228 -124 -375 -211 -373 -220 2 -6 -4 -9 -11 -6 -33 13 -36 -31 -36 -514 0
-443 1 -481 17 -500 10 -11 187 -114 393 -229 429 -241 453 -253 477 -253 30
0 840 453 865 484 16 19 18 61 18 501 0 440 -2 482 -18 502 -9 11 -116 76
-237 143 -121 68 -304 169 -406 226 -185 103 -230 122 -259 106z m204 -342
c95 -24 175 -66 258 -134 58 -48 148 -160 137 -170 -8 -9 -271 -156 -278 -156
-3 0 -26 21 -51 46 -68 70 -137 99 -235 99 -98 0 -158 -25 -227 -92 -67 -66
-92 -128 -93 -228 0 -66 5 -90 26 -136 32 -68 83 -120 152 -156 46 -24 63 -28
142 -28 74 0 99 5 137 23 48 24 117 83 135 116 9 17 21 13 152 -59 77 -42 141
-82 141 -89 0 -19 -49 -84 -106 -140 -89 -88 -209 -152 -332 -176 -88 -18
-250 -8 -332 20 -206 69 -378 250 -430 454 -24 96 -27 246 -5 331 33 130 131
282 230 357 65 49 175 104 245 122 82 22 241 20 334 -4z m258 -537 l3 -48 43
0 42 0 0 -50 0 -50 -42 0 -43 0 -3 -47 -3 -48 -49 0 -49 0 -3 48 -3 47 -42 3
-43 3 0 45 0 44 45 0 45 0 0 50 0 50 49 0 50 0 3 -47z m328 -4 l0 -51 45 4 45
3 0 -50 0 -50 -42 0 -43 0 -3 -47 -3 -48 -50 0 -49 0 0 51 0 51 -47 -3 -48 -3
0 49 0 49 48 -3 47 -3 0 51 0 51 50 0 50 0 0 -51z"/>
</g>
</svg>
