<?xml version="1.0" standalone="no"?>
<!DOCTYPE svg PUBLIC "-//W3C//DTD SVG 20010904//EN"
 "http://www.w3.org/TR/2001/REC-SVG-20010904/DTD/svg10.dtd">
<svg version="1.0" xmlns="http://www.w3.org/2000/svg"
 width="3547.000000pt" height="2322.000000pt" viewBox="0 0 3547.000000 2322.000000"
 preserveAspectRatio="xMidYMid meet">

<g transform="translate(0.000000,2322.000000) scale(0.100000,-0.100000)"
fill="#000000" stroke="none">
<path d="M13013 21443 c6 -76 5 -177 -2 -283 -18 -271 -46 -426 -166 -939
-101 -434 -117 -514 -118 -606 -2 -169 66 -254 228 -284 74 -14 461 -14 579
-1 90 11 164 36 199 68 30 27 58 89 68 153 17 107 -14 288 -136 789 -120 494
-143 631 -151 890 -3 96 -2 210 3 253 l9 77 -261 0 -260 0 8 -117z"/>
<path d="M14598 21386 c9 -329 -25 -563 -177 -1201 -111 -470 -128 -586 -96
-691 19 -64 71 -117 144 -146 54 -22 67 -23 356 -23 339 0 400 8 469 59 23 18
52 53 66 81 23 45 25 61 24 165 -1 134 -22 243 -138 725 -83 347 -108 465
-132 640 -18 128 -23 411 -10 508 l7 57 -259 0 -259 0 5 -174z"/>
<path d="M16177 21533 c13 -46 9 -431 -5 -533 -24 -167 -61 -347 -142 -680
-106 -439 -132 -572 -133 -696 -1 -94 1 -106 29 -160 38 -75 102 -117 207
-135 104 -17 594 -7 660 14 71 23 123 61 149 110 21 38 23 55 22 182 -1 155
-18 249 -114 635 -69 276 -116 495 -141 645 -23 150 -36 462 -22 573 l9 72
-263 0 -263 0 7 -27z"/>
<path d="M17768 21352 c7 -317 -15 -464 -158 -1050 -43 -180 -91 -393 -106
-472 -54 -298 -15 -430 148 -486 47 -17 86 -19 358 -19 346 1 395 8 469 71
113 97 103 289 -49 896 -126 500 -162 718 -164 988 0 102 3 206 7 233 l8 47
-258 0 -259 0 4 -208z"/>
<path d="M19344 21538 c3 -13 9 -86 12 -163 13 -281 -29 -550 -182 -1157 -56
-226 -101 -453 -110 -554 -8 -94 13 -190 52 -241 30 -40 99 -76 172 -92 65
-13 439 -14 576 -1 207 20 276 90 276 278 0 97 -21 209 -116 612 -140 591
-168 776 -168 1108 l-1 232 -259 0 -258 0 6 -22z"/>
<path d="M20938 21366 c8 -308 -17 -476 -148 -1016 -122 -504 -135 -574 -135
-720 0 -141 13 -180 78 -237 71 -63 108 -68 447 -67 249 0 316 3 363 16 79 22
121 53 154 113 26 46 28 58 27 155 -1 115 -11 165 -120 626 -138 587 -158 723
-159 1066 l0 258 -256 0 -256 0 5 -194z"/>
<path d="M12450 19068 c-422 -44 -597 -218 -652 -649 -19 -154 -19 -9404 0
-9558 29 -227 85 -366 186 -466 105 -103 260 -161 496 -185 85 -8 1335 -10
4820 -8 4416 4 4710 5 4790 21 367 75 505 226 562 615 19 129 19 9477 0 9602
-65 426 -235 586 -671 630 -130 13 -9405 12 -9531 -2z m9060 -893 c143 -45
215 -122 256 -272 14 -52 15 -484 16 -4268 l0 -4210 -21 -65 c-42 -132 -114
-207 -241 -251 l-65 -23 -4080 -4 c-2244 -2 -4135 -4 -4201 -4 -243 2 -379 63
-451 206 -58 115 -54 -183 -54 4361 0 4169 0 4170 21 4249 33 130 86 200 188
251 29 15 81 32 117 38 48 9 1073 12 4262 11 3952 -1 4201 -3 4253 -19z"/>
<path d="M13208 13873 c-2 -2084 -2 -3893 0 -4020 l3 -233 4019 0 4020 0 0
4020 0 4020 -4020 0 -4020 0 -2 -3787z m4227 1819 c417 -75 701 -216 971 -486
141 -142 221 -251 304 -416 105 -210 178 -463 196 -682 l7 -78 -471 0 -471 0
-5 33 c-58 356 -140 535 -331 715 -71 67 -106 92 -188 132 -118 57 -185 76
-325 91 -175 19 -379 -14 -515 -83 -330 -166 -517 -513 -589 -1088 -18 -141
-17 -640 0 -785 40 -326 115 -564 235 -749 131 -201 297 -322 524 -382 53 -14
106 -19 238 -19 186 0 256 12 388 66 226 94 412 310 503 586 20 63 64 277 64
314 0 5 199 9 473 9 l473 0 -8 -82 c-46 -441 -239 -857 -524 -1128 -329 -313
-729 -466 -1269 -486 -516 -20 -947 95 -1300 345 -100 71 -273 241 -353 347
-270 360 -409 794 -443 1383 -36 616 83 1203 325 1605 287 477 713 757 1276
840 58 9 121 18 140 20 19 2 154 2 300 1 207 -3 289 -8 375 -23z"/>
<path d="M11090 18120 c-52 -10 -185 -39 -295 -64 -788 -184 -969 -213 -1310
-204 l-175 4 0 -259 0 -258 58 7 c95 13 369 7 502 -10 172 -23 324 -54 680
-141 623 -152 749 -165 871 -92 43 25 59 43 81 87 42 85 49 177 39 480 -7 236
-11 271 -30 322 -53 137 -176 174 -421 128z"/>
<path d="M23077 18125 c-66 -25 -98 -55 -131 -124 l-31 -66 -3 -277 c-4 -310
4 -395 46 -477 22 -43 38 -60 82 -85 53 -30 59 -31 175 -30 138 1 253 22 690
129 321 79 511 118 677 141 130 17 414 23 511 10 l57 -7 0 258 0 258 -252 0
c-343 1 -470 20 -1088 165 -528 124 -638 140 -733 105z"/>
<path d="M11195 16554 c-74 -11 -349 -70 -598 -128 -303 -71 -482 -108 -633
-131 -161 -23 -417 -37 -541 -28 l-113 8 0 -255 0 -255 242 0 c324 0 422 -15
978 -150 495 -120 659 -149 775 -135 144 17 214 97 235 267 14 112 -3 583 -23
646 -33 104 -101 153 -222 161 -39 2 -83 2 -100 0z"/>
<path d="M23125 16554 c-90 -23 -142 -60 -175 -123 -36 -72 -42 -144 -38 -447
5 -314 11 -352 64 -421 15 -20 49 -46 81 -60 46 -21 69 -25 151 -25 121 1 263
28 692 132 524 127 653 149 920 156 102 3 218 2 258 -3 l72 -9 0 263 0 263
-22 -4 c-60 -13 -258 -16 -388 -6 -257 18 -477 57 -933 166 -442 105 -615 135
-682 118z"/>
<path d="M11130 14963 c-122 -21 -370 -75 -590 -129 -541 -132 -708 -158
-1017 -152 l-213 3 0 -258 0 -258 48 8 c71 12 373 8 487 -6 155 -19 333 -56
670 -137 474 -115 592 -137 720 -138 100 -1 115 1 165 26 131 64 155 163 141
583 -10 292 -18 330 -80 395 -47 49 -117 70 -225 69 -45 -1 -92 -4 -106 -6z"/>
<path d="M23100 14961 c-78 -25 -127 -70 -162 -146 -22 -49 -23 -57 -23 -370
0 -283 2 -327 18 -380 26 -82 81 -137 162 -160 113 -33 269 -9 825 125 526
127 685 153 955 154 99 0 201 -3 228 -7 l47 -8 0 259 0 258 -199 -4 c-317 -7
-481 16 -1006 144 -443 108 -581 135 -710 140 -60 2 -121 0 -135 -5z"/>
<path d="M11108 13375 c-112 -18 -361 -74 -608 -135 -456 -114 -649 -144 -930
-144 -113 -1 -217 2 -232 7 l-28 7 0 -258 0 -259 193 5 c308 7 488 -20 1077
-163 439 -106 559 -128 684 -123 108 4 158 22 203 70 34 37 63 110 73 190 11
87 3 495 -11 589 -23 148 -99 215 -254 224 -45 2 -118 -2 -167 -10z"/>
<path d="M23101 13375 c-99 -28 -148 -82 -177 -195 -24 -94 -16 -631 10 -705
24 -67 59 -111 109 -138 37 -20 56 -22 172 -22 149 0 230 15 665 121 582 143
686 159 1018 159 l252 0 0 258 0 257 -42 -7 c-68 -12 -414 -8 -518 6 -162 22
-342 59 -680 141 -539 130 -700 155 -809 125z"/>
<path d="M11120 11794 c-160 -31 -357 -74 -523 -115 -289 -72 -482 -114 -637
-140 -116 -20 -171 -23 -392 -24 l-258 0 0 -255 0 -255 258 0 c337 -1 488 -23
1027 -151 559 -134 665 -150 768 -120 72 21 127 73 151 142 29 83 35 188 27
459 -7 230 -11 266 -30 316 -23 59 -55 96 -111 125 -27 14 -61 19 -145 20 -60
1 -121 0 -135 -2z"/>
<path d="M23084 11786 c-64 -20 -102 -55 -137 -126 l-32 -65 0 -320 c0 -275 2
-328 17 -376 25 -78 55 -119 113 -148 44 -23 61 -26 150 -25 110 0 181 14 635
121 585 137 721 157 1062 158 l258 0 0 255 0 255 -257 0 c-168 0 -286 5 -338
13 -187 31 -359 68 -665 142 -516 126 -694 151 -806 116z"/>
<path d="M11055 10196 c-151 -28 -254 -51 -495 -111 -496 -124 -703 -157 -980
-159 -107 0 -212 3 -232 7 l-38 8 0 -258 0 -258 237 0 c332 -1 503 -27 1089
-165 402 -96 529 -120 619 -120 96 0 144 14 194 56 86 74 104 184 92 554 -5
140 -14 270 -20 288 -52 166 -182 210 -466 158z"/>
<path d="M23110 10210 c-54 -12 -117 -54 -147 -99 -44 -66 -48 -98 -48 -431 0
-368 6 -404 78 -476 97 -97 198 -91 787 46 417 98 462 107 628 134 220 36 405
50 585 43 l157 -6 0 260 0 260 -52 -8 c-29 -4 -134 -8 -233 -7 -269 1 -435 28
-955 155 -505 124 -686 153 -800 129z"/>
<path d="M13105 7950 c-232 -10 -286 -27 -340 -108 -69 -104 -56 -216 94 -849
128 -537 176 -892 154 -1160 l-8 -113 260 0 261 0 -9 78 c-5 42 -6 156 -3 252
8 257 31 393 156 910 135 558 156 709 116 827 -22 67 -85 126 -158 148 -64 20
-262 26 -523 15z"/>
<path d="M14685 7950 c-203 -8 -251 -20 -309 -76 -51 -50 -70 -122 -63 -239 7
-101 25 -190 126 -620 135 -580 155 -714 156 -1047 l0 -248 258 0 258 0 -8 58
c-13 96 -7 378 11 507 27 187 51 305 136 655 115 474 134 574 134 710 1 101
-2 121 -22 162 -29 59 -66 90 -139 119 -49 18 -81 22 -208 24 -82 2 -231 -1
-330 -5z"/>
<path d="M16270 7950 c-239 -9 -295 -32 -346 -137 -26 -51 -28 -67 -27 -157 1
-122 27 -258 128 -676 140 -580 159 -697 160 -995 0 -115 -3 -222 -8 -237 l-7
-28 257 0 258 0 0 247 c0 330 14 420 160 1023 101 415 116 497 122 628 7 146
-5 191 -68 254 -66 65 -116 79 -304 83 -82 1 -229 -1 -325 -5z"/>
<path d="M17855 7950 c-207 -7 -259 -22 -319 -92 -89 -104 -77 -257 70 -862
144 -595 168 -749 162 -1063 l-3 -213 258 0 258 0 -8 48 c-4 26 -7 128 -7 227
1 271 29 438 159 975 131 539 153 683 120 795 -21 75 -45 108 -100 140 -90 53
-171 60 -590 45z"/>
<path d="M19440 7950 c-96 -4 -190 -12 -208 -18 -91 -30 -141 -88 -162 -187
-23 -110 5 -279 135 -814 129 -534 149 -660 149 -951 1 -113 -3 -217 -7 -232
l-7 -28 257 0 258 0 1 233 c0 330 28 514 164 1092 105 444 120 523 120 628 0
80 -4 100 -25 144 -29 58 -78 97 -152 120 -59 18 -273 24 -523 13z"/>
<path d="M21030 7950 c-209 -7 -247 -17 -311 -80 -60 -60 -74 -113 -66 -259 7
-124 31 -245 132 -661 134 -552 150 -656 150 -983 l0 -247 255 0 255 0 0 263
c1 342 20 469 160 1062 126 534 141 629 110 733 -29 97 -101 150 -236 171 -67
11 -153 11 -449 1z"/>
<path d="M13200 3550 l0 -1140 215 0 215 0 0 110 0 110 34 0 c29 0 39 -7 70
-49 97 -136 243 -201 445 -201 390 1 623 260 671 745 25 254 -13 501 -108 695
-48 98 -160 214 -251 259 -182 92 -431 96 -593 9 -54 -29 -158 -127 -158 -149
0 -5 -18 -9 -40 -9 l-40 0 0 380 0 380 -230 0 -230 0 0 -1140z m943 264 c98
-33 173 -133 214 -284 14 -52 18 -105 18 -265 0 -160 -4 -213 -18 -265 -57
-210 -170 -310 -336 -298 -86 6 -150 36 -209 96 -59 61 -95 126 -124 227 -19
68 -22 103 -22 240 0 184 20 280 80 382 90 152 247 218 397 167z"/>
<path d="M18050 4310 l0 -380 -37 1 c-33 0 -43 6 -76 50 -44 58 -137 122 -211
145 -74 24 -264 29 -351 11 -333 -71 -523 -383 -525 -862 -1 -484 188 -806
517 -879 101 -22 241 -21 339 4 103 26 201 92 258 172 37 52 45 57 79 57 l37
1 0 -110 0 -110 210 0 210 0 0 1140 0 1140 -225 0 -225 0 0 -380z m-247 -509
c100 -48 179 -160 218 -308 17 -63 21 -107 21 -228 0 -171 -18 -262 -73 -366
-45 -84 -134 -164 -206 -185 -72 -21 -173 -15 -228 14 -45 23 -102 79 -132
132 -75 127 -102 425 -58 640 35 174 114 282 235 321 47 16 173 4 223 -20z"/>
<path d="M20020 4310 l0 -380 -37 1 c-33 0 -43 6 -76 50 -44 58 -137 122 -211
145 -75 24 -264 29 -354 10 -330 -70 -520 -384 -522 -861 -1 -484 188 -806
517 -879 101 -22 241 -21 339 4 103 26 201 92 258 172 37 52 45 57 79 57 l37
1 0 -110 0 -110 210 0 210 0 0 1140 0 1140 -225 0 -225 0 0 -380z m-247 -509
c100 -48 179 -160 218 -308 17 -63 21 -107 21 -228 0 -171 -18 -262 -73 -366
-45 -84 -134 -164 -206 -185 -72 -21 -173 -15 -228 14 -45 23 -102 79 -132
132 -75 127 -102 425 -58 640 35 174 114 282 235 321 47 16 173 4 223 -20z"/>
<path d="M23780 4310 l0 -380 -37 1 c-33 0 -43 6 -76 50 -44 58 -137 122 -211
145 -75 24 -264 29 -354 10 -330 -70 -520 -384 -522 -861 -1 -484 188 -806
517 -879 101 -22 241 -21 339 4 103 26 201 92 258 172 37 52 45 57 79 57 l37
1 0 -110 0 -110 210 0 210 0 0 1140 0 1140 -225 0 -225 0 0 -380z m-247 -509
c100 -48 179 -160 218 -308 17 -63 21 -107 21 -228 0 -171 -18 -262 -73 -366
-45 -84 -134 -164 -206 -185 -72 -21 -173 -15 -228 14 -45 23 -102 79 -132
132 -75 127 -102 425 -58 640 35 174 114 282 235 321 47 16 173 4 223 -20z"/>
<path d="M26003 4655 c-403 -73 -663 -347 -754 -795 -26 -126 -36 -408 -20
-549 35 -294 131 -512 301 -681 168 -167 364 -245 650 -257 197 -9 361 20 506
87 114 53 189 107 271 194 114 122 205 325 228 509 l7 57 -235 0 -235 0 -12
-67 c-50 -292 -280 -466 -556 -423 -308 48 -460 343 -441 855 18 486 195 735
523 735 238 0 421 -162 471 -418 l16 -82 234 0 233 0 0 23 c0 12 -9 63 -19
112 -80 384 -336 633 -720 700 -103 18 -348 18 -448 0z"/>
<path d="M8420 3520 l0 -1110 765 0 765 0 0 185 0 185 -530 0 -530 0 0 320 0
320 400 0 400 0 0 170 0 170 -400 0 -400 0 0 250 0 250 520 0 520 0 0 185 0
185 -755 0 -755 0 0 -1110z"/>
<path d="M11110 4149 c-119 -23 -234 -114 -297 -235 -25 -48 -31 -54 -60 -54
l-33 0 0 130 0 130 -215 0 -215 0 0 -855 0 -855 230 0 230 0 0 495 c0 557 4
597 67 718 43 81 99 132 167 152 121 36 234 -3 283 -99 45 -87 46 -103 50
-698 l4 -568 224 0 224 0 4 523 c3 460 6 529 21 581 56 190 169 287 320 274
102 -9 157 -54 199 -164 22 -58 22 -69 25 -636 l3 -578 229 0 230 0 0 563 c0
556 -6 678 -35 789 -38 146 -133 278 -244 337 -142 75 -369 82 -508 14 -67
-33 -153 -120 -193 -194 -29 -54 -34 -59 -65 -59 -31 0 -37 5 -59 49 -58 114
-176 205 -307 236 -69 16 -207 18 -279 4z"/>
<path d="M15678 4145 c-402 -76 -628 -391 -628 -875 0 -595 329 -927 888 -897
139 8 219 26 315 71 145 67 250 171 318 314 30 61 59 150 59 180 0 10 -47 12
-217 10 l-216 -3 -14 -40 c-22 -68 -94 -149 -160 -181 -51 -25 -69 -29 -148
-29 -73 0 -100 5 -142 24 -59 26 -140 106 -173 170 -27 53 -60 182 -60 233 l0
38 582 0 581 0 -6 138 c-14 320 -79 504 -232 657 -92 92 -176 142 -300 175
-105 29 -334 36 -447 15z m329 -315 c57 -25 105 -69 139 -126 26 -43 64 -179
64 -226 l0 -28 -355 0 -355 0 0 28 c0 41 26 128 56 190 46 94 130 161 227 182
63 14 170 4 224 -20z"/>
<path d="M21408 4145 c-402 -76 -628 -391 -628 -875 0 -502 232 -818 650 -886
368 -60 689 60 839 314 38 64 91 202 91 236 0 15 -24 16 -217 14 l-216 -3 -14
-40 c-22 -68 -94 -149 -160 -181 -51 -25 -69 -29 -148 -29 -73 0 -100 5 -142
24 -59 26 -140 106 -173 170 -27 53 -60 182 -60 233 l0 38 582 0 581 0 -6 138
c-14 320 -79 504 -232 658 -65 66 -98 89 -166 122 -46 22 -113 48 -149 57 -91
23 -331 29 -432 10z m329 -315 c57 -25 105 -69 139 -126 26 -43 64 -179 64
-226 l0 -28 -355 0 -355 0 0 28 c0 41 26 128 56 190 46 94 130 161 227 182 63
14 170 4 224 -20z"/>
</g>
</svg>
