<?xml version="1.0" standalone="no"?>
<!DOCTYPE svg PUBLIC "-//W3C//DTD SVG 20010904//EN"
 "http://www.w3.org/TR/2001/REC-SVG-20010904/DTD/svg10.dtd">
<svg version="1.0" xmlns="http://www.w3.org/2000/svg"
 width="206.000000pt" height="244.000000pt" viewBox="0 0 206.000000 244.000000"
 preserveAspectRatio="xMidYMid meet">

<g transform="translate(0.000000,244.000000) scale(0.100000,-0.100000)"
fill="#000000" stroke="none">
<path d="M925 2426 c-105 -25 -188 -109 -221 -222 -15 -52 -16 -92 -11 -328 3
-156 2 -279 -4 -293 -5 -14 -52 -74 -103 -134 -104 -121 -127 -160 -157 -270
-11 -41 -48 -128 -81 -194 -52 -101 -61 -128 -61 -171 0 -63 9 -80 29 -59 20
19 73 19 100 0 25 -17 118 -152 198 -288 32 -53 60 -97 63 -97 2 0 1 4 -2 10
-4 6 9 10 33 10 98 0 96 96 -5 177 -27 20 -87 71 -135 112 l-88 75 0 57 c0
118 47 274 120 398 27 48 40 81 40 108 0 45 27 108 74 172 39 55 56 100 56
152 0 22 2 39 5 39 3 0 29 -25 58 -56 50 -54 54 -56 103 -56 41 0 114 23 114
35 0 2 -22 1 -50 -3 -27 -3 -55 -3 -62 2 -7 4 -21 8 -31 8 -17 0 -47 22 -47
34 0 3 24 7 53 8 l52 1 -60 6 c-61 7 -94 20 -128 52 -11 10 -24 16 -29 13 -4
-3 -8 -1 -8 5 0 5 4 12 10 16 5 3 7 11 4 18 -2 7 2 21 10 32 12 16 11 23 -5
49 -13 21 -19 50 -19 89 0 56 20 126 37 128 4 0 18 2 31 5 50 9 127 -115 93
-149 -19 -19 -12 -27 17 -16 15 6 46 8 70 4 41 -6 43 -5 33 14 -12 22 -14 81
-3 96 4 6 23 18 42 27 26 12 30 17 15 18 -20 1 -20 1 -1 15 28 21 73 19 106
-5 58 -41 76 -160 35 -224 -14 -21 -14 -24 0 -29 16 -7 21 -81 7 -104 -5 -7
17 -63 54 -137 33 -68 67 -152 75 -187 9 -40 26 -78 47 -106 85 -112 117 -237
108 -430 -4 -89 -2 -133 5 -133 6 0 7 -13 3 -34 -8 -44 12 -103 37 -111 10 -4
19 -10 19 -14 0 -18 101 -3 142 22 39 23 88 75 88 93 0 4 6 15 14 23 36 43 45
167 20 289 -37 179 -97 306 -200 424 -84 95 -154 207 -185 293 -17 47 -24 97
-31 229 -4 94 -13 188 -19 210 -39 145 -154 255 -297 285 -66 14 -112 13 -177
-3z m473 -790 c7 -32 -34 -17 -51 19 -9 20 -17 38 -17 42 0 12 65 -45 68 -61z"/>
<path d="M1099 1996 c-63 -31 -42 -146 27 -146 31 0 64 33 64 65 0 62 -47 104
-91 81z"/>
<path d="M780 1981 c-17 -33 -11 -78 14 -108 l25 -28 27 27 c26 26 27 29 15
67 -17 57 -61 79 -81 42z"/>
<path d="M990 1870 c20 -13 33 -13 25 0 -3 6 -14 10 -23 10 -15 0 -15 -2 -2
-10z"/>
<path d="M1130 1745 c-50 -42 -71 -54 -125 -72 l-40 -13 39 6 c42 6 72 22 123
65 17 15 37 29 45 31 7 3 10 8 7 12 -4 4 -26 -9 -49 -29z"/>
<path d="M1390 647 c0 -26 4 -47 9 -47 8 0 3 79 -5 89 -2 2 -4 -17 -4 -42z"/>
<path d="M1395 491 c-12 -38 -169 -177 -240 -212 -67 -33 -73 -34 -190 -34
-104 0 -127 3 -170 23 -27 13 -62 39 -78 58 -33 39 -48 40 -22 0 9 -14 13 -31
9 -37 -4 -8 -3 -9 4 -5 8 5 12 -2 12 -18 0 -14 4 -26 9 -26 4 0 5 -19 1 -42
-5 -24 -7 -45 -5 -47 4 -4 -10 -23 -45 -56 -35 -35 -99 -42 -169 -19 -31 10
-61 19 -68 19 -6 0 -15 3 -18 7 -4 4 -13 4 -21 1 -8 -3 -14 -1 -14 5 0 5 -19
10 -43 10 -47 1 -181 27 -212 41 -11 6 -34 13 -51 16 -24 4 -34 14 -45 42 -8
20 -13 44 -12 52 1 9 -4 3 -11 -14 -14 -29 -12 -48 7 -72 11 -14 127 -51 282
-89 61 -14 143 -39 182 -55 104 -41 141 -45 196 -21 33 15 52 32 72 65 26 45
27 46 92 53 182 19 486 -21 528 -70 32 -38 84 -60 145 -60 67 0 105 19 180 89
68 64 123 101 220 150 41 20 83 45 94 54 24 21 50 71 36 71 -5 0 -10 -4 -10
-9 0 -16 -43 -58 -67 -65 -13 -4 -23 -11 -23 -16 0 -5 -7 -7 -15 -4 -8 4 -21
1 -29 -5 -7 -6 -22 -9 -32 -5 -16 5 -16 4 -4 -5 12 -9 11 -11 -9 -11 -26 0
-141 -60 -141 -73 0 -4 -4 -5 -10 -2 -5 3 -10 -1 -10 -10 0 -9 -4 -14 -9 -11
-5 4 -11 3 -13 -1 -1 -5 -23 -18 -46 -30 -89 -46 -196 -17 -221 60 -7 21 -10
88 -7 180 3 81 3 147 1 147 -2 0 -6 -9 -10 -19z"/>
<path d="M52 395 c0 -16 2 -22 5 -12 2 9 2 23 0 30 -3 6 -5 -1 -5 -18z"/>
</g>
</svg>
